<?xml version="1.0" encoding="UTF-8" standalone="no"?><!DOCTYPE svg PUBLIC "-//W3C//DTD SVG 1.1//EN" "http://www.w3.org/Graphics/SVG/1.1/DTD/svg11.dtd"><!-- Generated by graphviz version 2.40.1 (20161225.0304)
 --><!-- Title: G Pages: 1 --><svg xmlns="http://www.w3.org/2000/svg" xmlns:xlink="http://www.w3.org/1999/xlink" width="175pt" height="222pt" viewBox="0.00 0.00 174.70 221.60">
<g id="graph0" class="graph" transform="scale(1 1) rotate(0) translate(4 217.6)">
<title>G</title>
<polygon fill="#ffffff" stroke="transparent" points="-4,4 -4,-217.6 170.7037,-217.6 170.7037,4 -4,4"/>
<!-- LosAngeles -->
<g id="node1" class="node">
<title>LosAngeles</title>
<ellipse fill="none" stroke="#000000" cx="104.7037" cy="-195.6" rx="57.3224" ry="18"/>
<text text-anchor="middle" x="104.7037" y="-191.4" font-family="Times,serif" font-size="14.00" fill="#000000">LosAngeles</text>
</g>
<!-- Washington -->
<g id="node2" class="node">
<title>Washington</title>
<ellipse fill="none" stroke="#000000" cx="57.7037" cy="-106.8" rx="57.9081" ry="18"/>
<text text-anchor="middle" x="57.7037" y="-102.6" font-family="Times,serif" font-size="14.00" fill="#000000">Washington</text>
</g>
<!-- LosAngeles&#45;&gt;Washington -->
<g id="edge1" class="edge">
<title>LosAngeles-&gt;Washington</title>
<path fill="none" stroke="#ff0000" stroke-width="3" d="M95.1925,-177.63C88.5035,-164.9919 79.437,-147.862 71.8958,-133.614"/>
<polygon fill="#ff0000" stroke="#ff0000" stroke-width="3" points="74.9721,-131.9443 67.2007,-124.7433 68.7853,-135.219 74.9721,-131.9443"/>
<text text-anchor="middle" x="103.2037" y="-147" font-family="Times,serif" font-size="14.00" fill="#000000">$1000</text>
</g>
<!-- NewYork -->
<g id="node3" class="node">
<title>NewYork</title>
<ellipse fill="none" stroke="#000000" cx="103.7037" cy="-18" rx="49.2183" ry="18"/>
<text text-anchor="middle" x="103.7037" y="-13.8" font-family="Times,serif" font-size="14.00" fill="#000000">NewYork</text>
</g>
<!-- LosAngeles&#45;&gt;NewYork -->
<g id="edge2" class="edge">
<title>LosAngeles-&gt;NewYork</title>
<path fill="none" stroke="#000000" d="M116.9899,-177.6773C120.1385,-172.1277 123.0896,-165.829 124.7037,-159.6 136.5023,-114.0675 130.9146,-99.143 117.7037,-54 116.8914,-51.2245 115.9556,-48.3624 114.9608,-45.5218"/>
<polygon fill="#000000" stroke="#000000" points="118.2213,-44.2483 111.4455,-36.1034 111.6632,-46.696 118.2213,-44.2483"/>
<text text-anchor="middle" x="149.2037" y="-102.6" font-family="Times,serif" font-size="14.00" fill="#000000">$1300</text>
</g>
<!-- Washington&#45;&gt;NewYork -->
<g id="edge3" class="edge">
<title>Washington-&gt;NewYork</title>
<path fill="none" stroke="#ff0000" stroke-width="3" d="M67.0125,-88.83C73.4969,-76.3123 82.264,-59.3879 89.6023,-45.2218"/>
<polygon fill="#ff0000" stroke="#ff0000" stroke-width="3" points="92.9168,-46.4326 94.4088,-35.9433 86.7013,-43.2127 92.9168,-46.4326"/>
<text text-anchor="middle" x="99.7037" y="-58.2" font-family="Times,serif" font-size="14.00" fill="#000000">$200</text>
</g>
</g>
</svg>