<svg width="423pt" height="932pt" xmlns="http://www.w3.org/2000/svg" xmlns:xlink="http://www.w3.org/1999/xlink" xmlns:ev="http://www.w3.org/2001/xml-events" style="overflow: hidden; "><g id="viewport-20250327195711952" class="svg-pan-zoom_viewport" transform="matrix(0.7794173117629912,0,0,0.7794173117629912,119.51235939442445,26.683001338245596)" style="transform: matrix(0.779417, 0, 0, 0.779417, 119.512359, 26.683001);">
<g id="graph0" class="graph" transform="scale(1 1) rotate(0) translate(4 928)">
<title>G</title>
<polygon fill="white" stroke="none" points="-4,4 -4,-928 419.2,-928 419.2,4 -4,4"></polygon>
<!-- Seattle -->
<g id="node1" class="node">
<title>Seattle</title>
<ellipse fill="none" stroke="red" stroke-width="3" cx="291.7" cy="-906" rx="37.31" ry="18"></ellipse>
<text text-anchor="middle" x="291.7" y="-901.8" font-family="Times,serif" font-size="14.00">Seattle</text>
</g>
<!-- New York -->
<g id="node3" class="node">
<title>New York</title>
<ellipse fill="none" stroke="black" cx="175.7" cy="-817.2" rx="51.53" ry="18"></ellipse>
<text text-anchor="middle" x="175.7" y="-813" font-family="Times,serif" font-size="14.00">New York</text>
</g>
<!-- Seattle&#45;&gt;New York -->
<g id="edge1" class="edge">
<title>Seattle-&gt;New York</title>
<path fill="none" stroke="black" d="M268.89,-890.48C259.55,-884.36 248.72,-877.03 239.2,-870 227.13,-861.09 214.23,-850.72 203.23,-841.62"></path>
<polygon fill="black" stroke="black" points="205.58,-839.02 195.66,-835.3 201.09,-844.4 205.58,-839.02"></polygon>
<text text-anchor="middle" x="258.95" y="-857.4" font-family="Times,serif" font-size="14.00"> $1320</text>
</g>
<!-- Salt Lake -->
<g id="node4" class="node">
<title>Salt Lake</title>
<ellipse fill="none" stroke="black" cx="291.7" cy="-550.8" rx="47.77" ry="18"></ellipse>
<text text-anchor="middle" x="291.7" y="-546.6" font-family="Times,serif" font-size="14.00">Salt Lake</text>
</g>
<!-- Seattle&#45;&gt;Salt Lake -->
<g id="edge2" class="edge">
<title>Seattle-&gt;Salt Lake</title>
<path fill="none" stroke="red" stroke-width="3" d="M291.7,-886.71C291.7,-869.15 291.7,-841.86 291.7,-818.2 291.7,-818.2 291.7,-818.2 291.7,-638.6 291.7,-620.33 291.7,-599.89 291.7,-583.44"></path>
<polygon fill="red" stroke="red" stroke-width="3" points="295.2,-583.63 291.7,-573.63 288.2,-583.63 295.2,-583.63"></polygon>
<text text-anchor="middle" x="307.45" y="-724.2" font-family="Times,serif" font-size="14.00"> $325</text>
</g>
<!-- Washington -->
<g id="node2" class="node">
<title>Washington</title>
<ellipse fill="none" stroke="green" stroke-width="3" cx="57.7" cy="-18" rx="57.7" ry="18"></ellipse>
<text text-anchor="middle" x="57.7" y="-13.8" font-family="Times,serif" font-size="14.00">Washington</text>
</g>
<!-- Washington&#45;&gt;New York -->
<g id="edge21" class="edge">
<title>Washington-&gt;New York</title>
<path fill="none" stroke="black" d="M52.38,-37.11C47.72,-54.55 41.7,-81.74 41.7,-105.8 41.7,-729.4 41.7,-729.4 41.7,-729.4 41.7,-769.39 84.26,-791.87 121.4,-803.88"></path>
<polygon fill="black" stroke="black" points="120.16,-807.16 130.75,-806.7 122.19,-800.46 120.16,-807.16"></polygon>
<text text-anchor="middle" x="55.7" y="-413.4" font-family="Times,serif" font-size="14.00">$250</text>
</g>
<!-- Chicago -->
<g id="node9" class="node">
<title>Chicago</title>
<ellipse fill="none" stroke="black" cx="175.7" cy="-728.4" rx="43.22" ry="18"></ellipse>
<text text-anchor="middle" x="175.7" y="-724.2" font-family="Times,serif" font-size="14.00">Chicago</text>
</g>
<!-- New York&#45;&gt;Chicago -->
<g id="edge22" class="edge">
<title>New York-&gt;Chicago</title>
<path fill="none" stroke="black" d="M175.7,-799.05C175.7,-787.36 175.7,-771.59 175.7,-758.02"></path>
<polygon fill="black" stroke="black" points="179.2,-758.32 175.7,-748.32 172.2,-758.32 179.2,-758.32"></polygon>
<text text-anchor="middle" x="191.45" y="-768.6" font-family="Times,serif" font-size="14.00"> $320</text>
</g>
<!-- Phoenix -->
<g id="node5" class="node">
<title>Phoenix</title>
<ellipse fill="none" stroke="black" cx="323.7" cy="-373.2" rx="42.69" ry="18"></ellipse>
<text text-anchor="middle" x="323.7" y="-369" font-family="Times,serif" font-size="14.00">Phoenix</text>
</g>
<!-- Salt Lake&#45;&gt;Phoenix -->
<g id="edge3" class="edge">
<title>Salt Lake-&gt;Phoenix</title>
<path fill="none" stroke="black" d="M300.18,-532.7C302.64,-527.11 305.09,-520.8 306.7,-514.8 316.92,-476.78 321.01,-431.31 322.64,-402.59"></path>
<polygon fill="black" stroke="black" points="326.12,-403.05 323.12,-392.89 319.13,-402.7 326.12,-403.05"></polygon>
<text text-anchor="middle" x="335.45" y="-457.8" font-family="Times,serif" font-size="14.00"> $450</text>
</g>
<!-- Santa Fe -->
<g id="node6" class="node">
<title>Santa Fe</title>
<ellipse fill="none" stroke="black" cx="242.7" cy="-462" rx="44.56" ry="18"></ellipse>
<text text-anchor="middle" x="242.7" y="-457.8" font-family="Times,serif" font-size="14.00">Santa Fe</text>
</g>
<!-- Salt Lake&#45;&gt;Santa Fe -->
<g id="edge4" class="edge">
<title>Salt Lake-&gt;Santa Fe</title>
<path fill="none" stroke="red" stroke-width="3" d="M282.26,-533.06C275.79,-521.61 267.04,-506.11 259.41,-492.6"></path>
<polygon fill="red" stroke="red" stroke-width="3" points="262.49,-490.92 254.52,-483.93 256.39,-494.36 262.49,-490.92"></polygon>
<text text-anchor="middle" x="287.45" y="-502.2" font-family="Times,serif" font-size="14.00"> $379</text>
</g>
<!-- Phoenix&#45;&gt;Seattle -->
<g id="edge5" class="edge">
<title>Phoenix-&gt;Seattle</title>
<path fill="none" stroke="black" d="M343.02,-389.6C360.56,-405.44 383.7,-431.87 383.7,-461 383.7,-818.2 383.7,-818.2 383.7,-818.2 383.7,-849.51 355.17,-872.87 329.88,-887.42"></path>
<polygon fill="black" stroke="black" points="328.51,-884.18 321.39,-892.02 331.85,-890.33 328.51,-884.18"></polygon>
<text text-anchor="middle" x="399.45" y="-635.4" font-family="Times,serif" font-size="14.00"> $450</text>
</g>
<!-- Santa Fe&#45;&gt;Phoenix -->
<g id="edge7" class="edge">
<title>Santa Fe-&gt;Phoenix</title>
<path fill="none" stroke="black" d="M252.36,-444.15C258.91,-433.5 268.16,-419.81 278.2,-409.2 282.57,-404.59 287.59,-400.1 292.65,-395.96"></path>
<polygon fill="black" stroke="black" points="294.75,-398.77 300.51,-389.87 290.46,-393.23 294.75,-398.77"></polygon>
<text text-anchor="middle" x="294.45" y="-413.4" font-family="Times,serif" font-size="14.00"> $275</text>
</g>
<!-- Austin -->
<g id="node7" class="node">
<title>Austin</title>
<ellipse fill="none" stroke="black" cx="221.7" cy="-373.2" rx="36.79" ry="18"></ellipse>
<text text-anchor="middle" x="221.7" y="-369" font-family="Times,serif" font-size="14.00">Austin</text>
</g>
<!-- Santa Fe&#45;&gt;Austin -->
<g id="edge6" class="edge">
<title>Santa Fe-&gt;Austin</title>
<path fill="none" stroke="red" stroke-width="3" d="M231.25,-444.26C228.03,-438.7 224.94,-432.3 223.2,-426 221.43,-419.57 220.56,-412.52 220.22,-405.75"></path>
<polygon fill="red" stroke="red" stroke-width="3" points="223.72,-405.83 220.19,-395.84 216.72,-405.85 223.72,-405.83"></polygon>
<text text-anchor="middle" x="239.45" y="-413.4" font-family="Times,serif" font-size="14.00"> $572</text>
</g>
<!-- Dallas -->
<g id="node10" class="node">
<title>Dallas</title>
<ellipse fill="none" stroke="black" cx="155.7" cy="-284.4" rx="35.71" ry="18"></ellipse>
<text text-anchor="middle" x="155.7" y="-280.2" font-family="Times,serif" font-size="14.00">Dallas</text>
</g>
<!-- Austin&#45;&gt;Dallas -->
<g id="edge12" class="edge">
<title>Austin-&gt;Dallas</title>
<path fill="none" stroke="red" stroke-width="3" d="M204.23,-357.05C198,-351.19 191.17,-344.21 185.7,-337.2 180.29,-330.25 175.17,-322.22 170.74,-314.59"></path>
<polygon fill="red" stroke="red" stroke-width="3" points="173.89,-313.05 166,-305.98 167.75,-316.43 173.89,-313.05"></polygon>
<text text-anchor="middle" x="199.7" y="-324.6" font-family="Times,serif" font-size="14.00">$350</text>
</g>
<!-- Denver -->
<g id="node8" class="node">
<title>Denver</title>
<ellipse fill="none" stroke="black" cx="193.7" cy="-639.6" rx="39.46" ry="18"></ellipse>
<text text-anchor="middle" x="193.7" y="-635.4" font-family="Times,serif" font-size="14.00">Denver</text>
</g>
<!-- Denver&#45;&gt;Salt Lake -->
<g id="edge10" class="edge">
<title>Denver-&gt;Salt Lake</title>
<path fill="none" stroke="black" d="M210.16,-622.96C221.21,-612.56 236.17,-598.68 249.7,-586.8 254.14,-582.91 258.89,-578.84 263.55,-574.92"></path>
<polygon fill="black" stroke="black" points="265.7,-577.69 271.13,-568.59 261.21,-572.31 265.7,-577.69"></polygon>
<text text-anchor="middle" x="263.7" y="-591" font-family="Times,serif" font-size="14.00">$350</text>
</g>
<!-- Denver&#45;&gt;Santa Fe -->
<g id="edge11" class="edge">
<title>Denver-&gt;Santa Fe</title>
<path fill="none" stroke="black" d="M193.97,-621.36C194.71,-600.09 197.38,-563.04 206.7,-532.8 211.32,-517.84 219.04,-502.25 226.15,-489.61"></path>
<polygon fill="black" stroke="black" points="229.11,-491.48 231.13,-481.08 223.07,-487.95 229.11,-491.48"></polygon>
<text text-anchor="middle" x="220.7" y="-546.6" font-family="Times,serif" font-size="14.00">$180</text>
</g>
<!-- Denver&#45;&gt;Chicago -->
<g id="edge8" class="edge">
<title>Denver-&gt;Chicago</title>
<path fill="none" stroke="black" d="M198.02,-657.7C199.87,-667.95 200.95,-681.13 197.7,-692.4 196.86,-695.34 195.68,-698.27 194.31,-701.11"></path>
<polygon fill="black" stroke="black" points="191.41,-699.14 189.49,-709.56 197.49,-702.61 191.41,-699.14"></polygon>
<text text-anchor="middle" x="216.45" y="-679.8" font-family="Times,serif" font-size="14.00">$620 </text>
</g>
<!-- Denver&#45;&gt;Dallas -->
<g id="edge9" class="edge">
<title>Denver-&gt;Dallas</title>
<path fill="none" stroke="black" d="M162.47,-628.14C131.21,-615.46 87.7,-590.81 87.7,-551.8 87.7,-551.8 87.7,-551.8 87.7,-372.2 87.7,-345.55 107.81,-322.21 126.16,-306.47"></path>
<polygon fill="black" stroke="black" points="128.19,-309.34 133.76,-300.32 123.78,-303.9 128.19,-309.34"></polygon>
<text text-anchor="middle" x="101.7" y="-457.8" font-family="Times,serif" font-size="14.00">$475</text>
</g>
<!-- Chicago&#45;&gt;Denver -->
<g id="edge20" class="edge">
<title>Chicago-&gt;Denver</title>
<path fill="none" stroke="black" d="M166.18,-710.77C161.54,-700.47 157.81,-687.05 162.2,-675.6 163.7,-671.71 165.85,-667.98 168.33,-664.5"></path>
<polygon fill="black" stroke="black" points="170.78,-667.02 174.5,-657.1 165.4,-662.54 170.78,-667.02"></polygon>
<text text-anchor="middle" x="178.45" y="-679.8" font-family="Times,serif" font-size="14.00"> $570</text>
</g>
<!-- Dallas&#45;&gt;Austin -->
<g id="edge14" class="edge">
<title>Dallas-&gt;Austin</title>
<path fill="none" stroke="black" d="M183.75,-296.08C194.78,-301.68 206.5,-309.65 213.7,-320.4 218.27,-327.21 220.61,-335.63 221.73,-343.69"></path>
<polygon fill="black" stroke="black" points="218.23,-343.81 222.49,-353.51 225.21,-343.27 218.23,-343.81"></polygon>
<text text-anchor="middle" x="234.7" y="-324.6" font-family="Times,serif" font-size="14.00">$250</text>
</g>
<!-- Dallas&#45;&gt;Denver -->
<g id="edge15" class="edge">
<title>Dallas-&gt;Denver</title>
<path fill="none" stroke="black" d="M154.44,-302.68C153.27,-320.19 151.7,-348.06 151.7,-372.2 151.7,-551.8 151.7,-551.8 151.7,-551.8 151.7,-574.19 163.17,-596.88 174.12,-613.44"></path>
<polygon fill="black" stroke="black" points="170.94,-615.01 179.55,-621.2 176.68,-611 170.94,-615.01"></polygon>
<text text-anchor="middle" x="165.7" y="-457.8" font-family="Times,serif" font-size="14.00">$550</text>
</g>
<!-- Atlanta -->
<g id="node11" class="node">
<title>Atlanta</title>
<ellipse fill="none" stroke="black" cx="155.7" cy="-106.8" rx="39.46" ry="18"></ellipse>
<text text-anchor="middle" x="155.7" y="-102.6" font-family="Times,serif" font-size="14.00">Atlanta</text>
</g>
<!-- Dallas&#45;&gt;Atlanta -->
<g id="edge13" class="edge">
<title>Dallas-&gt;Atlanta</title>
<path fill="none" stroke="red" stroke-width="3" d="M155.7,-265.92C155.7,-236.47 155.7,-176.55 155.7,-139.52"></path>
<polygon fill="red" stroke="red" stroke-width="3" points="159.2,-139.75 155.7,-129.75 152.2,-139.75 159.2,-139.75"></polygon>
<text text-anchor="middle" x="169.7" y="-191.4" font-family="Times,serif" font-size="14.00">$780</text>
</g>
<!-- Miami -->
<g id="node12" class="node">
<title>Miami</title>
<ellipse fill="none" stroke="black" cx="238.7" cy="-195.6" rx="36.79" ry="18"></ellipse>
<text text-anchor="middle" x="238.7" y="-191.4" font-family="Times,serif" font-size="14.00">Miami</text>
</g>
<!-- Dallas&#45;&gt;Miami -->
<g id="edge16" class="edge">
<title>Dallas-&gt;Miami</title>
<path fill="none" stroke="black" d="M170.54,-267.88C183.21,-254.63 201.63,-235.37 216.12,-220.21"></path>
<polygon fill="black" stroke="black" points="218.29,-223.02 222.67,-213.37 213.23,-218.18 218.29,-223.02"></polygon>
<text text-anchor="middle" x="218.7" y="-235.8" font-family="Times,serif" font-size="14.00">$560</text>
</g>
<!-- Atlanta&#45;&gt;Washington -->
<g id="edge19" class="edge">
<title>Atlanta-&gt;Washington</title>
<path fill="none" stroke="red" stroke-width="3" d="M138.18,-90.28C124.23,-77.92 104.36,-60.33 87.86,-45.71"></path>
<polygon fill="red" stroke="red" stroke-width="3" points="90.29,-43.19 80.49,-39.18 85.65,-48.43 90.29,-43.19"></polygon>
<text text-anchor="middle" x="129.7" y="-58.2" font-family="Times,serif" font-size="14.00">$420</text>
</g>
<!-- Atlanta&#45;&gt;Dallas -->
<g id="edge17" class="edge">
<title>Atlanta-&gt;Dallas</title>
<path fill="none" stroke="black" d="M144.41,-124.42C135.88,-138.04 124.86,-158.17 120.2,-177.6 116.47,-193.16 116.47,-198.04 120.2,-213.6 123.87,-228.89 131.46,-244.6 138.69,-257.24"></path>
<polygon fill="black" stroke="black" points="135.66,-258.99 143.81,-265.76 141.66,-255.39 135.66,-258.99"></polygon>
<text text-anchor="middle" x="136.45" y="-191.4" font-family="Times,serif" font-size="14.00"> $860</text>
</g>
<!-- Atlanta&#45;&gt;Miami -->
<g id="edge18" class="edge">
<title>Atlanta-&gt;Miami</title>
<path fill="none" stroke="black" d="M164.7,-124.8C170.87,-135.5 179.71,-149.21 189.7,-159.6 194.96,-165.07 201.17,-170.25 207.38,-174.87"></path>
<polygon fill="black" stroke="black" points="204.93,-177.42 215.12,-180.32 208.96,-171.7 204.93,-177.42"></polygon>
<text text-anchor="middle" x="203.7" y="-147" font-family="Times,serif" font-size="14.00">$320</text>
</g>
<!-- Miami&#45;&gt;Atlanta -->
<g id="edge23" class="edge">
<title>Miami-&gt;Atlanta</title>
<path fill="none" stroke="black" d="M234.93,-177.66C231.8,-166.71 226.42,-152.71 217.7,-142.8 211.44,-135.67 203.35,-129.67 195.11,-124.76"></path>
<polygon fill="black" stroke="black" points="196.86,-121.73 186.4,-120.04 193.52,-127.88 196.86,-121.73"></polygon>
<text text-anchor="middle" x="242.7" y="-147" font-family="Times,serif" font-size="14.00">$457</text>
</g>
</g>
</g></svg>